<?xml version="1.0" encoding="utf-8"?>
<!-- Generator: Adobe Illustrator 25.4.1, SVG Export Plug-In . SVG Version: 6.00 Build 0)  -->
<svg version="1.1" id="Capa_1" xmlns="http://www.w3.org/2000/svg" xmlns:xlink="http://www.w3.org/1999/xlink" x="0px" y="0px"
	 viewBox="0 0 477.2 205.3" style="enable-background:new 0 0 477.2 205.3;" xml:space="preserve">
<style type="text/css">
	.st0{fill:#AC7D4D;}
	.st1{fill:#00AEEE;}
	.st2{fill:#0B8C38;}
	.st3{fill:#F3B531;}
</style>
<g>
	<path class="st0" d="M64.8,205.2c-6.8-0.1-13.6-0.2-20.5-0.3c-2.3,0-4.6-0.1-6.9-0.1c-0.6,0-0.8-0.2-0.7-0.7c0-1-0.3-2.1,0.1-2.8
		c0.4-0.7,1.7-0.5,2.6-0.7c4.6-0.9,9.3-1.3,14-1.7c8-0.7,16.1-1.4,24.2-2c4.6-0.3,9.3-0.6,13.9-0.8c3.4-0.2,6.8-0.3,10.2-0.5
		c0.2,0,0.4-0.1,0.6-0.1c0.1,0,0.2,0,0.2,0c0.6,1.3,1.7,1.2,2.9,1.2c7.4,0,14.8,0,22.3,0c1.1,0,1.9-0.3,2.3-1.4
		c0.1-0.4,0.2-0.9,0.8-0.9c3.6-0.1,7.1-0.2,10.7-0.3c0.3,0.5,0,0.9-0.1,1.3c-0.3,1.1-0.2,1.1,0.8,1.3c0.7,0.1,1.3,0.2,2,0.2
		c4.4,0,8.8,0,13.2,0c1.4,0,2.7-0.2,4-0.4c1-0.2,1.6-0.6,2-1.6c0.3-0.7,0.4-1.5,1.3-1.8c5,0.1,10-0.2,15.1-0.2
		c7.1-0.1,14.2-0.4,21.3-0.4c0.6,0,1.1-0.1,1.7-0.2c0.4,0,0.6,0.4,0.7,0.8c0.3,0.7,0.6,1.3,0.8,2c0.3,1.1,1,1.4,2.1,1.4
		c5.9-0.1,11.7,0,17.6,0c0.8,0,1.6,0,2.4,0.1c0.9,0.1,1.1-0.1,0.8-1c-0.2-0.7-0.5-1.4-0.8-2c-0.2-0.4-0.3-0.7-0.1-1.1
		c1.6-0.1,3.2-0.1,4.8-0.2c0.5,0.8,0.3,1.7,0.3,2.5c0.1,1.4,0,1.4,1.4,1.5c3.2,0.4,6.4,0.2,9.6,0.3c2.7,0.1,5.4,0,8.1-0.5
		c1.4-0.2,1.5-0.3,1.5-1.8c0-11.3,0-22.5,0-33.8c0-0.5-0.1-1,0.1-1.5c0.1-0.3,0.2-0.8,0.7-0.3c0.1,0.6,0,1.3,0,1.9
		c0,9.7,0,19.5,0,29.2c0,1.8,0,1.8,1.8,1.8c8.4,0,16.9-0.3,25.3-0.2c0.6,0,1.1,0,1.7,0.1c0.4,0.1,0.6,0.3,0.9,0.6
		c0.4,0.5,0.9,1,1.3,1.5c2.4,3.1,1.6,2.6,5.3,2.6c5,0,10,0,15,0c1.4,0,1.4,0,1.4-1.5c0-0.8,0-1.5,0-2.3c0-0.4,0-0.8,0.4-1.1
		c0.3,0.2,0.7,0.1,1.1,0.1c7.5-0.1,15.1,0.1,22.6,0.3c1.5,0,3,0.1,4.5,0.1c0.4,0.3,0.3,0.7,0.4,1.1c0,0.6,0,1.1,0,1.7
		c0,0.8,0.3,1.1,1.1,1.1c3,0.1,6.1,0.1,9.1,0.2c3.2,0.1,6.5,0.2,9.7,0.2c1.4,0,1.4-0.1,1.4-1.5c0-12,0-24,0-36
		c0-0.6-0.3-1.3,0.4-1.7c0,1.9,0,3.7,0,5.6c0,9.7,0,19.3,0,29c0,0.9,0.3,1.1,1.2,1.2c12.3,0.5,24.5,1.1,36.8,1.9
		c0.5,0,1.1,0.2,1.6-0.1c0.3-0.3,0.7-0.1,1,0c5,1.5,10.1,2.2,15.3,2.5c4.5,0.3,8.9-0.1,13.3-0.9c0.3-0.1,0.6-0.1,0.8,0.1
		c0.8,0.4,1.6,0.3,2.4,0.3c7.7,0.5,15.3,0.8,23,1.3c7.4,0.5,14.8,0.9,22.1,2.1c1.2,0.2,2.5,0.3,3.6,1c0,1.2,0,2.4,0,3.6
		c-0.3,0.3-0.7,0.3-1,0.3c-2-0.1-3.9,0.1-5.9,0.1c-26.5,0.1-53.1,0.1-79.6,0.1c-11.5,0-22.9-0.1-34.4-0.1
		c-62.1,0.2-124.2,0-186.3,0.1c-34.6,0-69.3,0-103.9,0C65.7,205.3,65.2,205.4,64.8,205.2z"/>
	<path class="st1" d="M323.7,21.9c3.2,0,6.1,0.2,9,0.7c14.8,2.7,29.5,6,44,9.7c5.8,1.5,11.5,3.1,17.2,4.9c0.8,0.3,1.6,0.6,2.4,1
		c0.2,0.1,0.7,0.2,0.5,0.6c-0.1,0.3-0.5,0.2-0.7,0.2c-4.2,0-8.3-0.5-12.3-1.5c-5.9-1.4-11.8-2.8-17.7-4.2c-2.1-0.5-4.3-0.7-6.5-0.7
		c-0.9,0-1.4,0.4-1.5,1.3c-0.2,1.1-0.4,2.3-0.7,3.4c-0.1,0.6,0,0.7,0.6,0.7c1.8,0.1,3.5,0.4,5.2,1c2,0.7,3.1,2.1,3.3,4.2
		c0.1,0.9,0.1,1.8,0.2,2.8c0.1,0.7-0.3,1.1-1,1.3c-0.5,0.1-1,0.3-1.5,0.2c-1.1-0.2-1.4,0.4-1.7,1.2c-0.9,2.5-1.3,5.1-1.8,7.6
		c-0.1,0.3-0.1,0.5-0.2,0.8c-0.9,3.6-0.5,3.4-4.5,2.8c-1.6-0.2-2.9-1.2-4.5-1.6c-0.6-0.2-0.4-0.6-0.3-1c0.2-2,0.3-4.1,0.6-6.1
		c0.1-1.1-0.2-1.5-1.3-1.9c-8-2.9-16.4-4.6-24.7-6.5c-1.4-0.3-2.8-0.8-4.4-1.2c0.6,1.2,1.4,2.1,2.2,2.9c8.9,9,11.9,20.2,11.7,32.5
		c0,2.4-0.7,4.8-1.9,6.9c-0.4,0.6-0.7,0.9-1.5,0.7c-5.9-1.4-11.7-2.8-17.6-4.2c-0.3-0.1-0.5-0.1-0.8-0.2c-1.9-0.4-1.9-0.4-1.6-2.4
		c0.4-2.4,0.5-4.9,0.4-7.3c-0.1-3.3-1.8-6.2-3.8-8.7c-3.1-4-7.4-6.2-12.3-7.2c-5.1-1-10.1-0.5-14.6,2.2c-4.7,2.9-7.3,7.3-8.8,12.5
		c-0.2,0.8-0.1,2-0.8,2.4c-0.6,0.4-1.5-0.4-2.3-0.6c-2.8-0.8-5.6-1.1-8.4-1.8c-3.3-0.8-6.6-1.6-9.8-2.4c-0.9-0.2-1.1-0.6-0.9-1.5
		c1.2-4.9,3.3-9.4,5.9-13.6c4.4-7.2,10.3-12.7,18.4-15.6c1.8-0.7,3.5-1.5,5.4-2.3c-0.4-0.4-0.9-0.4-1.3-0.5
		c-5.4-1.5-10.7-2.9-16.1-4.4c-2.9-0.8-5.9-0.4-8.8-0.7c-0.5,0-0.6,0.4-0.7,0.7c-0.6,1.9-1.2,3.8-1.8,5.7c-0.6,1.9-0.7,1.9-2.6,2
		c-2.3,0.1-4.5-0.6-6.7-1.1c-0.6-0.1-0.6-0.5-0.6-0.9c0.2-1.7,0.4-3.5,0.6-5.2c0.2-1.4,0-2.6-1.6-3.3c-0.7-0.3-0.9-0.9-0.7-1.6
		c0.7-2.7,1.4-5.5,2.8-7.9c0.7-1.1,1.5-1.7,2.9-1.6c2.1,0.2,4.2,0.4,6.2,0.7c0.7,0.1,0.8-0.1,0.9-0.7c0.3-1.5,0.6-3,0.9-4.5
		c0.2-0.7,0-0.9-0.7-1.1c-7.6-1.6-15.2-3.6-22.6-6.2c-2.1-0.7-4.1-1.4-6.1-2.3c-0.4-0.2-0.8-0.5-1.2-0.7c0-0.1,0-0.2,0.1-0.3
		c1.2,0,2.3-0.1,3.5,0c4.9,0.6,9.7,1.4,14.5,2.4c17.6,3.9,35.1,8.3,52.3,13.7c0.5,0.1,1,0.3,1.4,0.4c0.2,0.1,0.6,0.2,0.5,0.5
		c-0.1,0.3-0.4,0.1-0.6,0.1c-3.6,0-7.1-0.3-10.7-1c-7.3-1.5-14.5-3.4-21.8-4.8c-1.6-0.3-3.1-0.6-4.7-0.7c-0.5,0-0.7,0.1-0.8,0.6
		c-0.3,1.5-0.7,3-1.1,4.5c-0.2,0.8-0.1,1.2,0.9,1.3c2.8,0.5,5.6,1.2,8.4,1.7c7,1.3,14,1.2,21-0.1c11.3-2,22,0.1,32.2,5.2
		c5.7,2.9,11.1,6.2,16.8,9c5.8,2.8,11.8,4.5,18.3,4.1c0.5,0,0.8-0.1,0.9-0.7c0.2-1.2,0.6-2.3,0.8-3.5c0.2-0.6,0.1-1.1-0.7-1.4
		c-3.5-1.5-7.1-2.5-10.8-3.4c-5.6-1.4-11.2-2.5-16.6-4.3C326.1,23.5,324.9,23.1,323.7,21.9z"/>
	<path class="st2" d="M305.7,191.5c0,1.4,0,2.8,0,4.3c0,0.6-0.2,0.9-0.8,0.9c-6.2,0-12.4,0-18.6,0c-0.8,0-1.2-0.6-1.6-1.1
		c-0.9-1.3-1.9-2.6-3.1-3.7c-1-0.7-1.7-1.7-2.4-2.6c-5.8-6.9-11.7-13.8-17.5-20.7c-1.5-1.8-3.1-3.5-4.7-5.1
		c-1.4-1.4-2.7-2.8-4.2-4.1c-0.2-0.1-0.3-0.3-0.3-0.5c-0.6,0-0.3,0.5-0.3,0.7c0,2.5,0,5,0,7.4c0,9.4,0,18.7,0,28.1
		c0,0.8-0.2,1.2-1,1.3c-1.3,0.1-2.6,0.4-3.9,0.5c-5.2,0.3-10.4,0-15.7-0.1c-0.5,0-0.7-0.2-0.7-0.7c0-1.2,0-2.4,0-3.7
		c0-0.4,0-0.9,0-1.3c0-13.8,0-27.6,0-41.3c0-8,0.1-16.1,0.2-24.1c0-0.7,0.2-0.9,0.9-0.9c6.3,0,12.6,0,18.9,0c0.5,0,0.9,0.1,1.3,0.5
		c3.7,4.5,7.4,9,11.2,13.4c5.8,6.9,11.5,13.8,17.6,20.4c0.8,0.8,1.5,1.7,2.4,2.4c0.2-0.3,0.1-0.5,0.1-0.8
		c0.1-10.2,0.1-20.5,0.2-30.7c0-1.3-0.1-2.6,0-3.9c0-1.1,0.2-1.3,1.3-1.3c6.5,0,13.1,0,19.6,0c0.9,0,1.1,0.2,1.1,1.1
		c0,21.5,0,42.9,0,64.4C305.7,190.6,305.7,191.1,305.7,191.5z"/>
	<path class="st3" d="M142.2,67.2c5.5,0,11.1,0,16.6,0c1.9,0,1.9,0,1.9,1.9c0,9,0,18-0.1,27c0,1.2-0.1,2.3-0.1,3.5
		c0,0.4-0.1,0.7-0.5,0.9c-7.6,5-15.8,8.5-24.8,9.9c-12.4,1.9-24.2,0.2-34.9-6.5C90.9,98,85.2,89.5,83.8,78.4
		c-1.4-10.7,1.5-20.2,8.5-28.4c6.3-7.3,14.3-11.7,23.8-13.3c9.7-1.7,19.3-1.1,28.7,2c4.4,1.4,8.5,3.5,11.9,6.8
		c0.6,0.6,0.7,1,0.2,1.7c-1.9,3.1-4.5,5.6-7,8.3c-1.3,1.4-2.7,2.8-4,4.2c-0.4,0.5-0.8,0.6-1.3,0.3c-2.1-1.2-4.3-2.4-6.5-3.5
		c-7.9-3.6-15.8-4-23.4,0.7c-5.6,3.4-8.2,8.8-9,15.2c-0.8,6.7,2.1,11.9,7.1,16.1c3.7,3.1,8,4.6,12.7,5.2c4.8,0.6,9.4-0.1,13.7-2.4
		c0.6-0.3,0.8-0.6,0.8-1.3c0.1-2.2,0.2-4.5,0-6.7c-0.1-0.7-0.3-0.9-1.1-0.9c-4.6,0-9.2-0.1-13.8-0.2c-0.7,0-1-0.2-1-0.9
		c0-4.3,0-8.5,0-12.8c0-0.8,0.2-1,1-1C130.9,67.2,136.5,67.2,142.2,67.2z"/>
	<path class="st2" d="M426,196.5c-3.9,0.8-7.9,1.2-11.9,1.1c-5.8-0.1-11.5-0.7-17-2.4c-0.5-0.2-1.1-0.3-1.6-0.5
		c-5.4-1.8-10.5-4.2-15-7.8c-1.8-1.5-1.6-1.1-0.4-2.7c2.1-2.8,4.6-5.3,7-7.9c1-1,1.9-2.1,2.8-3.2c0.5-0.6,1-0.7,1.6-0.4
		c1,0.5,1.9,1,2.9,1.6c5,2.9,10.3,5.2,16,6.1c3.6,0.5,7.1,0.6,10.6-0.3c1.2-0.3,2.3-0.8,3.3-1.6c1.8-1.4,1.9-3.6,0.3-5.2
		c-1.1-1.2-2.6-1.9-4.1-2.4c-4.3-1.4-8.7-2.3-13.1-3.4c-4.6-1.1-9.2-2.2-13.5-4.4c-5.4-2.8-9.5-6.8-11.2-12.8c-2-7,0-13,4.8-18.3
		c4.6-5.1,10.5-7.8,17.2-8.7c11.3-1.7,22.3-0.2,32.9,4.2c2.6,1.1,4.9,2.6,6.9,4.6c0.5,0.5,0.5,0.9,0.1,1.5
		c-2.9,3.7-5.8,7.5-8.7,11.2c-1,1.3-1,1.3-2.6,0.8c-2-0.6-3.9-1.7-5.8-2.6c-5-2.2-10.2-3.4-15.7-3.6c-1.6-0.1-3.2,0.2-4.7,1
		c-2.7,1.5-3.2,4.3-1,6.5c1.3,1.3,2.9,2,4.5,2.5c3.9,1.2,8,1.9,12,2.8c5.7,1.2,11.2,2.8,16.1,5.9c5.7,3.6,8.6,8.7,9,15.4
		c0.6,8.3-3.1,14.2-10,18.3C434.4,194.2,430.3,195.5,426,196.5z"/>
	<path class="st2" d="M60.4,100.8c1.5,0,2.5,0.9,3.2,2c5.2,7.6,10.9,14.8,16.4,22.2c8.5,11.4,16.6,22.9,25.4,34
		c1.8,2.2,3.5,4.6,5.6,6.5c1.1,1.4,1.9,3.1,2.9,4.6c0.4,0.6,0.7,1.3,1.3,1.9c0.2-0.5,0.4-0.8,0.6-1.2c6.6-14.2,12.9-28.7,19.8-42.8
		c0.6-1.1,1.2-2.2,1.7-3.4c0.2-0.5,0.5-0.7,1.1-0.7c7.2,0,14.4,0,21.7,0c0.7,0,0.8,0.2,0.6,0.9c-1.1,3.8-2.6,7.4-4.2,10.9
		c-8.2,18.5-16.4,37-24.5,55.5c-0.5,1-0.9,2.1-1.3,3.1c0,0-0.1,0.1-0.1,0.1c-0.4,2.1-1.7,2.5-3.8,2.5c-7.4-0.1-14.7-0.1-22.1,0
		c-1.3,0-2.1-0.3-2.4-1.5c-1.6-4.2-3.7-8.3-5.5-12.4c-9.5-21.4-18.9-42.7-28.4-64.1c-2.5-5.7-5.1-11.4-7.6-17.2
		C60.6,101.5,60.5,101.2,60.4,100.8z"/>
	<path class="st2" d="M356.1,157.2c-0.2,0.3-0.1,0.7-0.1,1.1c0,12.4,0,24.7,0,37.1c0,1.3,0,1.3-1.3,1.3c-5.5-0.1-10.9-0.2-16.4-0.3
		c-1.2,0-2.4-0.1-3.7-0.1c-0.7,0-0.8-0.2-0.8-0.9c0-1.1,0-2.2,0-3.4c0-0.3,0-0.7,0-1c0-15.7,0-31.5,0-47.2c0-1.5-0.1-1.5-1.5-1.5
		c-7.2,0-14.4-0.1-21.6-0.1c-0.6,0-0.8-0.2-0.8-0.8c0.1-5.3,0.3-10.7,0.2-16c0-0.9,0.6-0.7,1.1-0.7c12.1,0,24.3,0.1,36.4,0.1
		c10.3,0,20.5,0.1,30.8,0.1c0.9,0,1.1,0.2,1.1,1.1c0,4.9,0,9.7,0,14.6c0,1-0.4,1.4-1.3,1.5c-1.1,0.1-2.2,0.2-3.4,0.2
		c-4.9,0.1-9.9,0.4-14.8,0c-1.1-0.1-2.2,0.1-3.4,0.1c-0.7,0-0.4,0.6-0.4,0.9c-0.1,4.4-0.1,8.7-0.1,13.1
		C356.1,156.7,356.1,156.9,356.1,157.2z"/>
	<path class="st3" d="M292.7,111.2c-9,0.1-17.6-2.3-25.5-7.5c-7-4.6-12.5-10.4-15.6-18.3c-1.7-4.3-2.3-8.9-1.7-13.6
		c0.1-0.8,0.4-1.1,1.3-0.9c6.1,1.2,12.1,2.5,18.2,3.5c2.1,0.4,3.7,0.9,3.6,3.4c2.7,8,7.9,13.4,16.4,14.9c5.6,1,10.7-0.6,15.3-3.9
		c1.8-1.3,3.4-2.7,4.7-4.4c0.5-0.7,1-0.7,1.7-0.6c4.2,0.6,8.4,1.5,12.5,2.6c2.2,0.6,4.3,1.2,6.5,1.6c0.9,0.2,1.1,0.6,0.8,1.4
		c-1,3-2.9,5.5-5.1,7.7c-6.5,6.6-14.4,10.9-23.5,13C299.4,110.9,296.3,111.3,292.7,111.2z"/>
	<path class="st3" d="M111.2,164.8c-0.2-1.1-0.6-2.1-1-3.1c-4.8-11.3-10-22.5-15-33.7c-5.2-11.6-10.5-23.2-15.7-34.9
		c-5-11.2-9.9-22.3-14.9-33.5c-3.3-7.3-6.5-14.6-9.8-21.9c-0.2-0.5-0.4-1-1.2-1c-6.7,0-13.3-0.1-20-0.2c-0.6,0-1,0.2-1.1,0.8
		c-0.2,0.8-0.5,1.6-0.8,2.3c-2.4,5.9-5.4,11.4-8.1,17.1c-4.5,9.6-8.7,19.4-13.2,29C6.8,93.5,2.7,100.8,0,108.8c0,0.1,0,0.3,0,0.4
		c7.5,0.1,14.9,0.1,22.4,0.2c0.7,0,0.8-0.3,0.9-0.9c1-3.6,2.6-7,4.6-10.2c0.7-1,1.6-1.5,2.8-1.5c9,0,18.1,0,27.1,0
		c0.6,0,0.8,0.2,1,0.7c0.5,1.1,1,2.2,1.5,3.2c2,0.6,3.1,2,4.1,3.7c0.4,0.6,0.8,1.2,1.2,1.7c4.7,6.6,9.7,13,14.5,19.5
		c3.3,4.6,6.8,9,10.1,13.6c5.9,8.2,12,16.4,18.5,24.2c0.6,0.8,1.2,1.7,2.3,2C111.6,165.4,111.3,165.1,111.2,164.8z M50.7,81.2
		c-2.4,0-4.8,0-7.2,0c-2.5,0-5,0-7.4,0c-0.9,0-0.9-0.3-0.7-1c1.2-3.6,2.9-7.1,4.4-10.6c1-2.3,2.1-4.6,3.2-7c0.1-0.3,0.1-0.8,0.5-0.9
		c0.4,0,0.5,0.5,0.7,0.8c2.1,3.8,3.8,7.8,5.4,11.8c0.8,1.9,1.5,3.7,2,5.7C51.9,81.2,51.9,81.2,50.7,81.2z"/>
	<path class="st3" d="M243.9,107.8c-2.9-4.5-6.4-8.5-9.6-12.8c-2.3-3-4.7-6-6.5-9.4c-0.7-1.5-0.7-1.6,0.8-2.3
		c3.1-1.5,5.8-3.4,8.1-5.9c5.2-5.6,7.1-12.4,5.7-19.8c-1.5-8-6-13.8-13.6-17.1c-5.3-2.3-10.9-2.9-16.5-3.1
		c-6.9-0.2-13.7-0.2-20.6-0.3c-0.7,0-1.5,0-2.2,0c-5.4-0.4-10.8,0.1-16.2,0.3c-1,0-1.3,0.4-1.3,1.4c0,22.5,0,45,0,67.6
		c0,2.8,0,2.7,2.8,2.8c5.9,0.1,11.8,0.1,17.7,0.2c1.9,0,1.9,0,1.9-1.8c0-2.6,0-5.2,0-7.9c0-3.7,0-7.4,0-11.1c0-0.4-0.2-0.9,0.6-0.9
		c2.7,0,5.4,0.1,8-0.2c0.3,0,0.6,0,0.8,0.2c0.7,0.8,1.4,1.6,2.1,2.4c2.4,3,4.3,6.3,6.5,9.4c2,2.9,3.9,5.9,6.2,8.6
		c0.6,0.7,1.2,1,2.2,1.1c2.2,0.1,4.4-0.1,6.7,0c5.3,0.1,10.6,0.1,15.9,0.2c0.4,0,0.7,0.1,1.1-0.1
		C244.5,108.7,244.2,108.3,243.9,107.8z M218.9,68c-1.4,1.8-3.4,2.6-5.6,3.2c-3.9,1.1-7.8,0.8-11.7,0.7c-2.1-0.1-4.2,0-6.3-0.3
		c-0.6-0.1-0.8-0.3-0.8-0.8c0-2.5,0-5.1,0-7.6c0-2.3,0-4.6,0-6.9c0-1,0.1-1.3,1.2-1.4c3.8-0.3,7.6-0.6,11.4-0.5
		c2.9,0.1,5.7,0.4,8.4,1.6C220.6,58.2,222.2,63.8,218.9,68z"/>
	<path class="st2" d="M227.3,195.8c-0.4-1.1-0.9-2.2-1.3-3.3c-0.1-0.2-0.2-0.3-0.3-0.5c-10.2-22.3-20.3-44.7-30.7-67
		c-0.3-0.5-0.5-0.7-1.1-0.7c-5.7,0-11.3,0-17-0.2c-2.5-0.1-3.6,0.8-4.6,2.9c-8.2,17.2-16.5,34.4-24.2,51.8
		c-2.3,5.1-4.5,10.3-6.8,15.5c-0.2,0.7-0.4,1.4-0.6,2.1c-0.2,0.6-0.1,0.8,0.6,0.8c1.9,0,3.8,0.1,5.6,0.1c4.3,0,8.5,0.2,12.8-0.2
		c1.8-0.2,3.5-0.4,4-2.6c0.1-0.4,0.4-0.8,0.6-1.1c0.4-0.1,0.5-0.5,0.7-0.8c1.1-2,2.2-4.1,3.2-6.2c0.5-1.1,1.2-1.5,2.5-1.5
		c8.7,0,17.4,0.1,26,0c1.4,0,2.2,0.5,2.8,1.6c0.8,1.7,1.8,3.3,2.5,5.1c0.2,0.4,0.3,0.8,0.7,1c0.5,1.1,1,2.2,1.4,3.4
		c0.3,0.8,0.8,1,1.5,1c6.3,0,12.5,0,18.8,0c0.7,0,1.3,0,2,0.1C227.5,197.2,227.7,196.9,227.3,195.8z M191.4,168.7c-2.5,0-5,0-7.5,0
		c-2.4,0-4.9,0-7.3,0c-0.7,0-0.9-0.1-0.7-0.8c1.7-5.5,3.9-10.7,6.5-15.8c0.4-0.8,0.9-1.5,1.6-2.1c0.3-0.3,0.5-0.2,0.7,0.2
		c2.2,5.2,4.7,10.4,6.7,15.7c0.3,0.7,0.4,1.5,0.7,2.2C192.2,168.5,192,168.7,191.4,168.7z"/>
</g>
</svg>
